<?xml version="1.0" encoding="utf-8"?>
<!-- Generator: Adobe Illustrator 16.0.0, SVG Export Plug-In . SVG Version: 6.00 Build 0)  -->
<!DOCTYPE svg PUBLIC "-//W3C//DTD SVG 1.1//EN" "http://www.w3.org/Graphics/SVG/1.1/DTD/svg11.dtd">
<svg version="1.1" id="Слой_1" xmlns="http://www.w3.org/2000/svg" xmlns:xlink="http://www.w3.org/1999/xlink" x="0px" y="0px"
	 width="462.005px" height="531.177px" viewBox="0 0 462.005 531.177" enable-background="new 0 0 462.005 531.177"
	 xml:space="preserve">
<g>
	<path fill="none" stroke="#1D795A" stroke-width="15" stroke-linecap="round" stroke-linejoin="round" stroke-miterlimit="10" d="
		M184.629,81.488C83.446,102.837,7.5,192.635,7.5,300.174c0,123.436,100.066,223.503,223.501,223.503
		c123.438,0,223.504-100.067,223.504-223.503c0-108.357-77.109-198.703-179.445-219.163"/>
	<g>
		<polyline fill="none" stroke="#4D4D4D" stroke-width="15" stroke-linecap="round" stroke-miterlimit="10" points="
			147.938,349.212 133.012,425.967 158.598,425.967 200.528,376.929 		"/>
		<path fill="none" stroke="#4D4D4D" stroke-width="15" stroke-linecap="round" stroke-miterlimit="10" d="M184.095,396.146
			c36.334,18.449,98.163,19.218,125.879,0"/>
		<path fill="none" stroke="#4D4D4D" stroke-width="15" stroke-linecap="round" stroke-miterlimit="10" d="M306.421,381.193
			l12.791,44.773h28.428c0,0,4.264-19.188,12.793-33.403c0,0-8.529-17.767-9.238-39.087"/>
		<path fill="none" stroke="#4D4D4D" stroke-width="15" stroke-linecap="round" stroke-miterlimit="10" d="M351.921,362.197
			c11.355-14.408,24.857-28.621,24.857-65.576c0,0,24.873-16.347,17.768-51.17c0,0-8.656,13.502-20.674,18.477
			c-12.018,4.977-27.738-72.49-126.838-72.49c-55.036,0-89.148,22.742-89.148,22.742"/>
		<path fill="none" stroke="#4D4D4D" stroke-width="15" stroke-linecap="round" stroke-miterlimit="10" d="M152.912,256.111
			c11.37-23.454,11.37-58.277-38.379-81.73v53.302c0,0-17.768,4.975-26.295,19.188c-8.527,14.215-9.949,25.07-19.189,29.947
			c-9.238,4.877-29.139,11.984-31.27,14.826c-2.132,2.844,12.082,43.354,16.345,46.195c4.265,2.843,24.876,10.66,38.379,11.372"/>
		<path fill="none" stroke="#4D4D4D" stroke-width="15" stroke-linecap="round" stroke-miterlimit="10" d="M86.684,348.554
			c12.927,13.45,36.936,28.761,55.136,32.122"/>
		<path fill="none" stroke="#4D4D4D" stroke-width="9" stroke-linecap="round" stroke-miterlimit="10" d="M106.244,269.633
			c-3.32,4.738-4.263,10.047-4.263,10.047"/>
		<path fill="none" stroke="#4D4D4D" stroke-width="9" stroke-linecap="round" stroke-miterlimit="10" d="M224.929,215.127
			c17.529-3.79,42.168-2.842,54.486,1.896"/>
	</g>
	<g>
		
			<circle fill="none" stroke="#F7931E" stroke-width="15" stroke-linecap="round" stroke-linejoin="round" stroke-miterlimit="10" cx="206.278" cy="93.442" r="24.724"/>
		
			<circle fill="none" stroke="#F7931E" stroke-width="15" stroke-linecap="round" stroke-linejoin="round" stroke-miterlimit="10" cx="259.407" cy="143.363" r="28.405"/>
		<path fill="none" stroke="#F7931E" stroke-width="15" stroke-linecap="round" stroke-linejoin="round" stroke-miterlimit="10" d="
			M205.927,68.722c-2.604-5.54-4.057-11.726-4.057-18.251c0-23.732,19.239-42.971,42.971-42.971s42.971,19.238,42.971,42.971
			s-19.238,42.971-42.971,42.971c-4.883,0-9.576-0.815-13.951-2.315"/>
	</g>
</g>
</svg>
