<?xml version="1.0" encoding="utf-8"?>
<!-- Generator: Adobe Illustrator 16.0.0, SVG Export Plug-In . SVG Version: 6.00 Build 0)  -->
<!DOCTYPE svg PUBLIC "-//W3C//DTD SVG 1.1//EN" "http://www.w3.org/Graphics/SVG/1.1/DTD/svg11.dtd">
<svg version="1.1" id="Слой_1" xmlns="http://www.w3.org/2000/svg" xmlns:xlink="http://www.w3.org/1999/xlink" x="0px" y="0px"
	 width="462.042px" height="559.044px" viewBox="0 0 462.042 559.044" enable-background="new 0 0 462.042 559.044"
	 xml:space="preserve">
<g>
	<path fill="none" stroke="#1D795A" stroke-width="15" stroke-linecap="round" stroke-linejoin="round" stroke-miterlimit="10" d="
		M144.014,529.582C63.793,495.649,7.5,416.209,7.5,323.629c0-51.109,17.154-98.214,46.019-135.867"/>
	<path fill="none" stroke="#1D795A" stroke-width="15" stroke-linecap="round" stroke-linejoin="round" stroke-miterlimit="10" d="
		M409.076,188.482c28.531,37.532,45.466,84.36,45.466,135.147c0,89.911-53.089,167.429-129.641,202.904"/>
	<g>
		<g>
			
				<line fill="none" stroke="#4D4D4D" stroke-width="15" stroke-linecap="round" stroke-linejoin="round" stroke-miterlimit="10" x1="104.643" y1="292.757" x2="364.689" y2="292.757"/>
			
				<line fill="none" stroke="#4D4D4D" stroke-width="15" stroke-linecap="round" stroke-linejoin="round" stroke-miterlimit="10" x1="139.005" y1="551.544" x2="330.323" y2="551.544"/>
			
				<line fill="none" stroke="#4D4D4D" stroke-width="15" stroke-linecap="round" stroke-linejoin="round" stroke-miterlimit="10" x1="114.477" y1="292.757" x2="146.349" y2="551.544"/>
			
				<line fill="none" stroke="#4D4D4D" stroke-width="15" stroke-linecap="round" stroke-linejoin="round" stroke-miterlimit="10" x1="353.68" y1="292.757" x2="321.811" y2="551.544"/>
			<path fill="none" stroke="#4D4D4D" stroke-width="9" stroke-linecap="round" stroke-miterlimit="10" d="M121.027,345.074
				c0,10.533,52.027,8.01,116.209-5.637c64.184-13.634,116.203-33.231,116.203-43.764"/>
			<path fill="none" stroke="#4D4D4D" stroke-width="9" stroke-linecap="round" stroke-miterlimit="10" d="M117.205,313.045
				c0,10.79,53.315,8.207,119.086-5.774c20.199-4.293,39.222-9.161,55.887-14.158"/>
			<path fill="none" stroke="#4D4D4D" stroke-width="9" stroke-linecap="round" stroke-miterlimit="10" d="M124.947,377.412
				c0,10.167,50.222,7.726,112.17-5.438c61.954-13.165,112.169-32.083,112.169-42.244"/>
			<path fill="none" stroke="#4D4D4D" stroke-width="9" stroke-linecap="round" stroke-miterlimit="10" d="M129.357,412.447
				c0,9.751,48.187,7.411,107.63-5.218c59.433-12.633,107.616-30.783,107.616-40.533"/>
			<path fill="none" stroke="#4D4D4D" stroke-width="9" stroke-linecap="round" stroke-miterlimit="10" d="M133.637,447.551
				c0,9.354,46.219,7.111,103.23-5.006c57.016-12.119,103.234-29.525,103.234-38.879"/>
			<path fill="none" stroke="#4D4D4D" stroke-width="9" stroke-linecap="round" stroke-miterlimit="10" d="M137.996,482.627
				c0,8.955,44.217,6.801,98.768-4.791c54.562-11.596,98.781-28.249,98.781-37.204"/>
			<path fill="none" stroke="#4D4D4D" stroke-width="9" stroke-linecap="round" stroke-miterlimit="10" d="M142.385,517.719
				c0,8.553,42.239,6.499,94.362-4.575c52.11-11.077,94.355-26.991,94.355-35.54"/>
			<path fill="none" stroke="#4D4D4D" stroke-width="9" stroke-linecap="round" stroke-miterlimit="10" d="M220.858,551.544
				c5.062-0.931,10.274-1.968,15.596-3.096c49.683-10.556,89.946-25.723,89.946-33.872"/>
			<path fill="none" stroke="#4D4D4D" stroke-width="9" stroke-linecap="round" stroke-miterlimit="10" d="M347.231,345.074
				c0,10.533-52.033,8.01-116.212-5.637c-64.18-13.634-116.206-33.231-116.206-43.764"/>
			<path fill="none" stroke="#4D4D4D" stroke-width="9" stroke-linecap="round" stroke-miterlimit="10" d="M351.048,313.045
				c0,10.79-53.309,8.207-119.083-5.774c-20.195-4.293-39.218-9.161-55.883-14.158"/>
			<path fill="none" stroke="#4D4D4D" stroke-width="9" stroke-linecap="round" stroke-miterlimit="10" d="M343.312,377.412
				c0,10.167-50.222,7.726-112.173-5.438c-61.947-13.165-112.166-32.083-112.166-42.244"/>
			<path fill="none" stroke="#4D4D4D" stroke-width="9" stroke-linecap="round" stroke-miterlimit="10" d="M338.896,412.447
				c0,9.751-48.177,7.411-107.623-5.218c-59.437-12.633-107.62-30.783-107.62-40.533"/>
			<path fill="none" stroke="#4D4D4D" stroke-width="9" stroke-linecap="round" stroke-miterlimit="10" d="M334.623,447.551
				c0,9.354-46.215,7.111-103.23-5.006c-57.02-12.119-103.238-29.525-103.238-38.879"/>
			<path fill="none" stroke="#4D4D4D" stroke-width="9" stroke-linecap="round" stroke-miterlimit="10" d="M330.267,482.627
				c0,8.955-44.224,6.801-98.774-4.791c-54.555-11.596-98.781-28.249-98.781-37.204"/>
			<path fill="none" stroke="#4D4D4D" stroke-width="9" stroke-linecap="round" stroke-miterlimit="10" d="M325.877,517.719
				c0,8.553-42.248,6.499-94.361-4.575c-52.113-11.077-94.359-26.991-94.359-35.54"/>
			<path fill="none" stroke="#4D4D4D" stroke-width="9" stroke-linecap="round" stroke-miterlimit="10" d="M247.397,551.544
				c-5.065-0.931-10.277-1.968-15.593-3.096c-49.679-10.556-89.945-25.723-89.945-33.872"/>
		</g>
	</g>
	<g>
		
			<polygon fill="none" stroke="#4D4D4D" stroke-width="15" stroke-linecap="round" stroke-linejoin="round" stroke-miterlimit="10" points="
			58.301,134.044 129.71,205.46 129.71,163.727 203.903,163.724 203.903,104.369 129.713,104.369 129.713,62.635 		"/>
		
			<polygon fill="#F7931E" stroke="#4D4D4D" stroke-width="15" stroke-linecap="round" stroke-linejoin="round" stroke-miterlimit="10" points="
			409.06,134.044 337.646,205.46 337.646,163.727 263.45,163.724 263.45,104.369 337.644,104.369 337.644,62.635 		"/>
		<g>
			<g>
				
					<line fill="none" stroke="#4D4D4D" stroke-width="9" stroke-linecap="round" stroke-linejoin="round" x1="232.484" y1="263.592" x2="232.484" y2="243.593"/>
				
					<line fill="none" stroke="#4D4D4D" stroke-width="9" stroke-linecap="round" stroke-linejoin="round" stroke-dasharray="43.8186,21.9093" x1="232.483" y1="221.684" x2="232.479" y2="35.455"/>
				
					<line fill="none" stroke="#4D4D4D" stroke-width="9" stroke-linecap="round" stroke-linejoin="round" x1="232.479" y1="24.5" x2="232.478" y2="4.5"/>
			</g>
		</g>
	</g>
</g>
</svg>
