<?xml version="1.0" encoding="utf-8"?>
<!-- Generator: Adobe Illustrator 16.0.0, SVG Export Plug-In . SVG Version: 6.00 Build 0)  -->
<!DOCTYPE svg PUBLIC "-//W3C//DTD SVG 1.1//EN" "http://www.w3.org/Graphics/SVG/1.1/DTD/svg11.dtd">
<svg version="1.1" id="Слой_1" xmlns="http://www.w3.org/2000/svg" xmlns:xlink="http://www.w3.org/1999/xlink" x="0px" y="0px"
	 width="464.15px" height="464.153px" viewBox="0 0 464.15 464.153" enable-background="new 0 0 464.15 464.153"
	 xml:space="preserve">
<path fill="#F47422" stroke="#F37421" stroke-miterlimit="10" d="M111.512,330.066c-14.99-0.005-27.186-12.2-27.186-27.187v-92.256
	c0-14.989,12.195-27.183,27.186-27.183h38.075c14.99,0,27.186,12.194,27.186,27.183v92.256c0,14.989-12.195,27.187-27.186,27.187
	H111.512z M111.512,196.701c-7.68,0-13.928,6.244-13.928,13.923v92.264c0,7.676,6.248,13.922,13.928,13.922h38.075
	c7.68,0,13.925-6.246,13.925-13.922v-92.264c0-7.679-6.245-13.923-13.925-13.923H111.512z"/>
<path fill="#F47422" stroke="#F37421" stroke-miterlimit="10" d="M241.302,330.208c-20.768,0-41.652-2.529-48.918-32.759
	c0.002,0.003,0.004,0.005,0.005,0.005c0.021,0,0.067-0.177,0.097-0.297c0.09-0.341,0.2-0.766,0.2-1.258V190.551
	c0-0.321-0.017-0.641-0.033-0.959c-0.035-0.699-0.067-1.304,0.123-1.725l1.448-3.823c2.389-7.4,9.742-19.103,19.869-34.835
	c8.298-12.897,15.356-24.055,17.694-29.979c4.995-12.635,3.841-29.192,3.83-29.358c-0.196-2.525,1.019-4.893,3.174-6.186
	c0.654-0.396,6.591-3.843,14.323-3.843c4.862,0,9.355,1.348,13.356,4.006c11.195,7.44,23.729,19.059,21.267,43.064
	c-0.77,7.604-4.004,14.838-7.131,21.833c-2.135,4.799-4.119,9.258-5.248,13.55c-0.252,0.926-0.311,2.728-0.32,5.521l-0.007,1.572
	l1.565,0.135c10.331,0.887,18.81,1.48,26.616,1.48c5.2,0,9.422-0.042,12.835-0.078c2.378-0.023,4.366-0.043,6.026-0.043
	c1.394,0,2.553,0.013,3.522,0.051c1.438,0.03,2.926,0.072,4.246,0.247c8.592,1.144,16.219,5.567,21.471,12.449
	c5.264,6.88,7.529,15.399,6.384,23.989c-1.112,8.383-5.387,15.895-12.039,21.149l-1.126,0.891l0.687,1.261
	c2.907,5.361,4.017,11.381,3.204,17.408c-0.916,6.908-4.31,13.221-9.557,17.78l-0.588,0.509v0.778c0,0.171,0.014,0.337,0.025,0.472
	l0.024,0.266l0.106,0.246c1.748,4.08,2.361,8.595,1.771,13.057c-0.844,6.324-4.229,12.238-9.286,16.223l-1.011,0.796l0.489,1.19
	c1.336,3.256,1.755,6.817,1.249,10.591c-1.014,7.566-6.486,14.094-13.938,16.63l-0.113,0.039l-0.106,0.053
	c-4.626,2.334-10.53,2.805-18.554,2.805c-2.771,0-5.861-0.057-9.293-0.122c-4.345-0.08-9.023-0.158-14.256-0.158
	c-6.601,0-12.788,0.2-18.773,0.395l-0.643,0.021C250.781,330.054,245.878,330.208,241.302,330.208z M206.319,296.59
	c4.585,17.383,14.792,20.365,35.462,20.365c4.482,0,8.914-0.146,14.044-0.316l1.149-0.036c5.864-0.191,11.929-0.388,18.526-0.388
	c5.426,0,10.111,0.084,14.442,0.172c3.347,0.064,6.329,0.113,9.017,0.113c7.033,0,10.967-0.459,12.756-1.484
	c0.463-0.267,0.924-0.467,1.404-0.609c2.382-0.707,4.97-2.819,5.386-5.939c0.165-1.237,0.163-3.043-0.786-4.613
	c-1.552-2.531-1.965-5.999-1.112-9.285c0.746-2.834,2.371-5.076,4.579-6.311c3.247-1.823,5.384-4.953,5.865-8.59
	c0.291-2.155-0.017-4.32-0.893-6.255c-1.655-3.644-2.113-12.764,2.943-16.487c3.414-2.499,5.602-6.178,6.158-10.354
	c0.49-3.643-0.353-7.346-2.375-10.422c-3.153-4.818-1.348-13.719,3.451-17.007c4.496-3.069,7.482-7.908,8.199-13.277
	c0.669-5.075-0.67-10.114-3.773-14.189c-3.112-4.069-7.621-6.681-12.699-7.355c-0.896-0.122-1.736-0.138-2.44-0.138
	c-0.023,0-0.453,0-0.536-0.003c-0.853-0.035-1.896-0.048-3.127-0.048c-1.492,0-3.27,0.02-5.357,0.043l-0.964,0.01
	c-3.354,0.031-7.452,0.071-12.433,0.071c-10.438,0-21.857-1.006-32.9-1.98l-2.797-0.251c-1.77-0.155-3.428-1.03-4.555-2.403
	c-1.124-1.375-1.653-3.172-1.452-4.925c0.25-2.229,0.258-4.638,0.269-6.761c0.023-3.244,0.046-6.311,0.762-9.037
	c1.412-5.351,3.724-10.541,5.959-15.56c2.824-6.33,5.491-12.307,6.049-17.793c1.806-17.639-7.016-25.083-15.424-30.674
	c-1.73-1.149-3.877-1.757-6.208-1.757c-0.866,0-1.735,0.086-2.581,0.254l-1.362,0.271l-0.01,1.389
	c-0.063,7.757-0.963,19.098-4.905,29.071c-2.944,7.415-10.714,19.488-18.937,32.271c-7.517,11.669-16.872,26.195-18.565,31.885
	c-0.161,0.554-0.068,1.025,0.025,1.331l-0.633,2.509V296.59H206.319z"/>
<g>
	<path fill="#F47422" stroke="#F37421" stroke-miterlimit="10" d="M136.802,295.3c0,4.03-3.27,7.294-7.293,7.294h-2.085
		c-4.022,0-7.294-3.264-7.294-7.294v-2.083c0-4.033,3.271-7.293,7.294-7.293h2.085c4.023,0,7.293,3.26,7.293,7.293V295.3z"/>
	<g>
		<path fill="#F47422" stroke="#F37421" stroke-miterlimit="10" d="M278.219,302.594c-0.023,0-0.05,0-0.08,0
			c-0.476,0-0.902,0.77-1.299,0.704c-2.271-0.042-4.093-1.479-4.093-3.753c0-2.309,1.865-3.96,4.166-3.96
			c1.359,0,5.488,0.093,5.572,4.192c0.013,0.594-0.113,0.391-0.373,0.902C281.516,302.252,279.993,302.594,278.219,302.594z"/>
	</g>
	<g>
		<path fill="#F47422" stroke="#F37421" stroke-miterlimit="10" d="M247.732,305.443c-10.12,0-18.793-2.02-26.803-11.241
			c-1.512-1.742-1.321-4.375,0.413-5.877c1.738-1.518,4.373-1.326,5.879,0.415c8.229,9.475,16.581,8.892,31.728,7.831
			c1.922-0.131,3.91-0.265,5.998-0.396c2.234-0.145,4.27,1.617,4.413,3.908c0.14,2.295-1.615,4.27-3.91,4.412
			c-2.055,0.117-4.026,0.261-5.918,0.391C255.379,305.17,251.456,305.443,247.732,305.443z"/>
	</g>
</g>
<circle fill="none" stroke="#1D795A" stroke-width="15" stroke-linecap="round" stroke-linejoin="round" stroke-miterlimit="10" cx="232.075" cy="232.076" r="224.575"/>
</svg>
