<?xml version="1.0" encoding="utf-8"?>
<!-- Generator: Adobe Illustrator 16.0.0, SVG Export Plug-In . SVG Version: 6.00 Build 0)  -->
<!DOCTYPE svg PUBLIC "-//W3C//DTD SVG 1.1//EN" "http://www.w3.org/Graphics/SVG/1.1/DTD/svg11.dtd">
<svg version="1.1" id="Слой_1" xmlns="http://www.w3.org/2000/svg" xmlns:xlink="http://www.w3.org/1999/xlink" x="0px" y="0px"
	 width="206.215px" height="208.554px" viewBox="0 0 206.215 208.554" enable-background="new 0 0 206.215 208.554"
	 xml:space="preserve">
<g>
	<g>
		<g>
			<path fill="none" stroke="#F7931E" stroke-width="6" stroke-linecap="round" stroke-miterlimit="10" d="M180.55,171.768
				c2.911-2.849,2.959-7.523,0.108-10.436L48.264,26.101c-2.852-2.912-7.523-2.962-10.435-0.112L27.282,36.315
				c-2.911,2.851-2.96,7.524-0.108,10.434l132.395,135.232c2.851,2.912,7.524,2.963,10.435,0.111L180.55,171.768z"/>
			<g>
				<path fill="none" stroke="#F7931E" stroke-width="6" stroke-linecap="round" stroke-miterlimit="10" d="M38.327,15.951
					L27.692,5.087c-2.685-2.741-7.08-2.788-9.823-0.105L6.704,15.914c-2.74,2.685-2.787,7.081-0.103,9.822l10.636,10.863
					L38.327,15.951z"/>
				<path fill="none" stroke="#F7931E" stroke-width="6" stroke-linecap="round" stroke-miterlimit="10" d="M190.597,171.482
					l10.635,10.864c2.684,2.74,2.638,7.137-0.104,9.82l-11.166,10.932c-2.741,2.684-7.138,2.637-9.822-0.103l-10.635-10.864
					L190.597,171.482z"/>
			</g>
			
				<line fill="none" stroke="#F7931E" stroke-width="3" stroke-linecap="round" stroke-miterlimit="10" x1="43.705" y1="32.943" x2="138.292" y2="129.559"/>
			
				<line fill="none" stroke="#F7931E" stroke-width="3" stroke-linecap="round" stroke-miterlimit="10" x1="146.121" y1="137.554" x2="173.121" y2="165.132"/>
		</g>
		<g>
			
				<line fill="none" stroke="#F7931E" stroke-width="3" stroke-linecap="round" stroke-miterlimit="10" x1="83.13" y1="124.39" x2="67.943" y2="139.259"/>
			<g>
				
					<line fill="none" stroke="#F7931E" stroke-width="3" stroke-linecap="round" stroke-miterlimit="10" x1="58.962" y1="99.7" x2="47.088" y2="102.766"/>
				
					<line fill="none" stroke="#F7931E" stroke-width="3" stroke-linecap="round" stroke-miterlimit="10" x1="107.3" y1="149.078" x2="103.986" y2="160.883"/>
			</g>
		</g>
		<g>
			
				<line fill="none" stroke="#F7931E" stroke-width="3" stroke-linecap="round" stroke-miterlimit="10" x1="125.899" y1="82.518" x2="141.088" y2="67.647"/>
			<g>
				
					<line fill="none" stroke="#F7931E" stroke-width="3" stroke-linecap="round" stroke-miterlimit="10" x1="101.73" y1="57.83" x2="105.044" y2="46.025"/>
				
					<line fill="none" stroke="#F7931E" stroke-width="3" stroke-linecap="round" stroke-miterlimit="10" x1="150.07" y1="107.206" x2="161.944" y2="104.143"/>
			</g>
		</g>
	</g>
	<g>
		<path fill="none" stroke="#4D4D4D" stroke-width="6" stroke-linecap="round" stroke-miterlimit="10" d="M53,202.554
			c0,1.657-1.344,3-3,3H6c-1.656,0-3-1.343-3-3v-44c0-1.656,1.344-3,3-3h44c1.656,0,3,1.344,3,3V202.554z"/>
		<polyline fill="none" stroke="#4D4D4D" stroke-width="9" stroke-linecap="round" stroke-miterlimit="10" points="14.098,175.282 
			25.854,191.054 41.902,170.054 		"/>
	</g>
</g>
</svg>
